<?xml version="1.0" encoding="UTF-8" standalone="no"?>
<svg width="300px" height="115px" viewBox="0 0 300 115" version="1.1" xmlns="http://www.w3.org/2000/svg" xmlns:xlink="http://www.w3.org/1999/xlink">
    <!-- Generator: Sketch 42 (36781) - http://www.bohemiancoding.com/sketch -->
    <title>era_logo</title>
    <desc>Created with Sketch.</desc>
    <defs></defs>
    <g id="era_logo" fill="#ED1C7F">
        <path d="M196.144174,30.645887 L173.197821,30.645887 C176.529757,10.0714079 190.926236,0.036616002 216.450126,0.036616002 C246.940486,0.036616002 262.4057,10.1345198 263.034367,30.645887 L263.034367,68.3868026 C263.034367,102.088557 244.614417,112.628244 214.752724,114.774048 C188.222967,116.856741 169.803018,104.486809 169.803018,79.9362801 C170.431685,53.3030587 189.668902,46.1714141 217.644593,43.4576025 C229.589271,42.0060288 235.624476,38.4086506 235.624476,32.3499083 C234.995809,26.0387184 229.149204,22.8831234 217.644593,22.8831234 C210.03772,22.8831234 205.134116,24.397809 202.55658,27.490292 C200.984912,29.4467609 198.658843,30.645887 196.144174,30.645887 M236.12741,67.1245646 L236.12741,56.8373251 C229.652137,59.5511367 222.108131,61.886277 213.998324,63.5271864 C202.93378,65.609879 197.275775,70.8481666 197.275775,79.0527135 C197.904443,87.8883793 202.493713,92.0537647 211.295054,92.0537647 C226.697402,92.1168766 236.12741,82.9025393 236.12741,67.1245646 L236.12741,67.1245646 Z M66.9530595,84.354113 L89.8365465,84.354113 C86.5046102,104.928592 72.045264,114.963384 46.5842414,114.963384 C16.093881,114.963384 0.628667225,104.86548 -2.13162821e-14,84.354113 L-2.13162821e-14,46.6131974 C-2.13162821e-14,12.9114434 18.4199497,2.37175626 48.2816429,0.225951699 C74.8113998,-1.85674097 93.2313495,10.5131912 93.2313495,35.0637199 C92.6026823,61.6969413 73.3654652,68.8285859 45.3897737,71.5423975 C33.4450964,72.9939712 27.409891,76.5913494 27.409891,82.6500917 C28.0385583,88.9612816 33.8851635,92.1168766 45.3897737,92.1168766 C52.9966471,92.1168766 57.9002515,90.602191 60.4777871,87.509708 C62.0494552,85.5532391 64.4383906,84.354113 66.9530595,84.354113 L66.9530595,84.354113 Z M29.3587594,47.8754354 L29.3587594,58.1626749 C35.8340319,55.4488633 43.3780386,53.113723 51.4878458,51.4728136 C62.5523889,49.390121 68.210394,44.1518334 68.210394,35.9472865 C67.5817267,27.1116207 62.992456,22.9462353 54.1911148,22.9462353 C38.7259011,22.8831234 29.3587594,32.1605726 29.3587594,47.8754354 L29.3587594,47.8754354 Z M162.934711,0 C151.284917,0 141.392355,1.69982945 133.191942,5.09948835 L133.191942,4.44570779 C133.191942,2.09209778 131.304545,0.261512223 129.026653,0.261512223 L104.1,0.261512223 L104.1,54.9829449 L104.1,55.6367254 L104.1,115 L125.642355,115 C129.872727,115 133.322107,111.534963 133.322107,107.285389 L133.322107,55.2444571 C133.322107,38.5076748 141.327273,30.0085276 157.337603,30.0085276 C162.739463,30.0085276 167.1,25.6281978 167.1,20.2018192 L167.1,0 L162.934711,0 L162.934711,0 Z M285.666387,111.17667 C293.582623,111.17667 300,104.734266 300,96.7871571 C300,88.8400485 293.582623,82.3976441 285.666387,82.3976441 C277.750152,82.3976441 271.332775,88.8400485 271.332775,96.7871571 C271.332775,104.734266 277.750152,111.17667 285.666387,111.17667 L285.666387,111.17667 Z" id="Combined-Shape"></path>
    </g>
</svg>
